<svg
   xmlns:dc="http://purl.org/dc/elements/1.1/"
   xmlns:cc="http://creativecommons.org/ns#"
   xmlns:rdf="http://www.w3.org/1999/02/22-rdf-syntax-ns#"
   xmlns:svg="http://www.w3.org/2000/svg"
   xmlns="http://www.w3.org/2000/svg"
   version="1.1"
   viewBox="0 0 64 64">
  <g
     transform="matrix(1.7419706,0,0,1.7419706,-32.722918,-20.25912)"
     style="stroke-width:1.14377868">
    <path
       transform="matrix(0.5740625,0,0,0.5740625,18.785,11.630001)"
       d="M 31.957031 18.517578 C 18.665796 18.517578 7.8828125 29.299025 7.8828125 40.917969 L 7.8828125 64 L 56.117188 64 L 56.117188 42.591797 A 24.074034 24.074034 0 0 0 31.957031 18.517578 z M 31.957031 32.138672 A 9.1279255 9.1279255 0 0 1 41.083984 41.267578 A 9.1279255 9.1279255 0 0 1 31.957031 50.394531 A 9.1279255 9.1279255 0 0 1 22.828125 41.267578 A 9.1279255 9.1279255 0 0 1 31.957031 32.138672 z "
       style="fill:#19a582;stroke-width:1.99242878" />
    <polygon
       style="fill:#19a582;stroke-width:1.14377868"
       points="37.13,20.76 28,11.63 46.27,11.63 " />
  </g>
</svg>
